<svg xmlns="http://www.w3.org/2000/svg" viewBox="0 0 220 99"><path fill="#202123" fill-rule="evenodd" d="M26.8 27.7h5.22v4.23h.12c1.34-2.9 4.82-4.93 9.05-4.93 5.34 0 9.98 3.2 9.98 10.5v17.7h-5.22V38.95c0-5.16-2.96-7.08-6.27-7.08-4.35 0-7.66 2.79-7.66 9.17V55.2H26.8V27.7zm32.41 15.66c0 4.82 4.47 8.01 9.29 8.01 3.19 0 5.51-1.62 7.54-4.12L80 50.27c-2.9 3.77-6.9 5.63-12.19 5.63-8.7 0-14.16-6.27-14.16-14.45C53.64 33.2 59.62 27 67.86 27c9.7 0 13.4 7.43 13.4 14.5v1.86H59.21zm16.48-4.18c-.11-4.58-2.67-8-7.95-8-5.16 0-8.53 4.35-8.53 8H75.7zm15.59 1.34L81.53 27.7h6.73l6.68 9.74 6.55-9.74h6.33l-9.4 12.82 11.14 14.68h-6.73L94.7 43.65 86.58 55.2h-6.44l11.14-14.68zm19.67-12.82h4.87v4.29h.12c.52-1.62 3.89-4.99 8.82-4.99 4.06 0 6.85 1.74 8.59 5.1a9.94 9.94 0 0 1 8.7-5.1c8.47 0 10.45 6.03 10.45 12.18V55.2h-5.23V39.88c0-4.18-.87-8-5.92-8-5.04 0-7.02 3.42-7.02 8.3V55.2h-5.22V40.81c0-5.22-.75-8.94-5.8-8.94-3.77 0-7.14 2.85-7.14 9.06V55.2h-5.22V27.7zm63.18 13.44a3.35 3.35 0 1 1-6.7 0 3.35 3.35 0 0 1 6.7 0zm-3.47-9.26a9.6 9.6 0 0 0-8.8 5.76l-4.5-1.76a14.43 14.43 0 0 1 27.61 3.85h2.25l-4.5 4.41-4.48-4.4h1.85a9.6 9.6 0 0 0-9.43-7.86zm0 19.19a9.6 9.6 0 0 0 8.78-5.73l4.5 1.76a14.43 14.43 0 0 1-27.56-3.64h-2.04l4.5-4.4 4.47 4.4h-2.03a9.59 9.59 0 0 0 9.38 7.6zM194 30.47a3.38 3.38 0 0 1-3.36 3.38 3.38 3.38 0 0 1 .01-6.77 3.37 3.37 0 0 1 3.35 3.4zM29.95 65.7H26v-.88h8.9v.88h-3.96V73h-.99v-7.3zm6.02-.88h.91v3.16a3.73 3.73 0 0 1 2.48-1.04c.73 0 2.43.17 2.43 2.18v3.89h-.91v-3.7c.02-1.4-1-1.6-1.64-1.6-1 0-1.83.63-2.36 1.19V73h-.91v-8.18zm13.32 6.96c-.6.64-1.2 1.4-3.2 1.4-1.97 0-3.33-1.34-3.33-3.15 0-1.86 1.41-3.09 3.22-3.09 1.88 0 3.53.98 3.48 3.3h-5.78c.09 1.11.98 2.17 2.5 2.17s2.03-.69 2.4-1.15l.71.52zm-.82-2.3c-.18-.98-1.01-1.76-2.4-1.76-1.35 0-2.1.67-2.36 1.75h4.76zm5.24-4.66h1.71l3.08 6.53 3.12-6.53h1.71l-4 8.19h-1.67l-3.95-8.19zm8.71 5.16c0-1.62.98-3.22 3.39-3.22 2.4 0 3.39 1.6 3.39 3.22 0 2.4-1.74 3.23-3.4 3.23-1.65 0-3.38-.82-3.38-3.23zm5.36-.02c0-1.42-.91-2-1.97-2-1.07 0-1.97.58-1.97 2 0 1.28.72 2.06 1.97 2.06s1.97-.78 1.97-2.06zm2.08-3h1.37v.76a2.93 2.93 0 0 1 2.26-.96c1.26 0 2.37.53 2.37 2.38V73h-1.4v-3.36c0-1.19-.36-1.7-1.3-1.7-1.1 0-1.56.46-1.9.9V73h-1.4v-6.05zm13.26 5.07c0 .4.03.8.12.98H81.8c-.05-.2-.08-.4-.08-.61a5.1 5.1 0 0 1-2.65.8c-.8 0-2.34-.33-2.34-1.81 0-2.04 3.04-2.33 4.99-2.45v-.27c0-.46-.42-.78-1.57-.78-1.28 0-1.55.47-1.63.8h-1.45c.34-1.65 1.95-1.93 3.07-1.93 2.92 0 2.97 1.42 2.97 2.25v3.02zm-1.4-2.07c-.8.03-1.51.14-2.16.3-.87.2-1.28.5-1.29 1.02 0 .52.33.85 1.02.85a4.7 4.7 0 0 0 2.44-.79v-1.38zm9.45-2.02c-.13-.03-.35-.11-.5-.09-.17 0-.37.07-.46.11.1.13.28.49.28 1 0 1.65-1.46 2.23-3.06 2.23-.56 0-1-.09-1.27-.19-.16.1-.38.27-.38.49 0 .21.13.36 1.35.35h1.9c1.36.04 2.15.44 2.15 1.38 0 1.44-2.1 1.86-3.93 1.86-1.69 0-3.15-.34-3.15-1.34 0-.72.64-.82 1.22-.94v-.02c-.52-.04-.92-.32-.92-.93 0-.61.58-1.07 1.06-1.14v-.02c-.67-.37-1-.97-1-1.74 0-1.77 1.63-2.19 3.12-2.19 1.06 0 1.68.27 2.1.55.2-.22.66-.65 1.26-.65h.23v1.28zm-2.05 1.03c0-.9-.92-1.17-1.67-1.17-.76 0-1.62.27-1.62 1.18 0 .94.87 1.18 1.61 1.18.75 0 1.68-.3 1.68-1.2zm-2.69 4.12c-.33 0-.8.09-.8.43 0 .5.65.56 1.76.56 1.09 0 2.26-.13 2.26-.61 0-.42-.25-.4-1.79-.38h-1.43zm11.96-1.9c-.1.5-.91 2.02-3.15 2.02-2.16 0-3.45-1.35-3.45-3.24 0-1.71 1.12-3.21 3.35-3.21 2.27.02 3.36 1.43 3.36 3.61h-5.3c.06.39.27 1.65 2 1.71.87 0 1.46-.41 1.66-.89h1.53zm-1.37-1.9c-.21-1.02-.91-1.4-1.91-1.4-.74 0-1.58.24-1.86 1.4h3.77zm3.18-3.49a1.67 1.67 0 1 1 0 3.33 1.67 1.67 0 0 1 0-3.33zm0 3.07a1.4 1.4 0 1 0 0-2.8 1.4 1.4 0 0 0 0 2.8zm-.02-1.3h-.37v.89h-.26v-1.99h.79c.44 0 .64.2.64.56 0 .34-.23.5-.5.55l.6.88h-.32l-.58-.88zm-.37-.23h.44c.26 0 .47-.03.47-.32 0-.28-.23-.31-.47-.31h-.44v.63zm9.25-2.51h1.21l4.2 8.18h-1.12l-1.05-2.13h-5.28l-1.07 2.13h-1.1l4.2-8.18zm2.8 5.17l-2.2-4.4-2.19 4.4h4.39zm3.86-5.17h4.8c1.65 0 3.16.47 3.16 2.34 0 1.88-1.51 2.35-3.16 2.35h-3.8v3.49h-1v-8.18zm1 3.81h3.54c1.64 0 2.47-.34 2.47-1.46 0-1.12-.83-1.47-2.47-1.47h-3.55v2.93zm8.36 4.37v-8.18h.99v8.18h-.99zm7.18-8.18h4.8c1.65 0 3.16.47 3.16 2.34 0 1.88-1.51 2.35-3.16 2.35h-3.8v3.49h-1v-8.18zm1 3.81h3.54c1.64 0 2.47-.34 2.47-1.46 0-1.12-.83-1.47-2.47-1.47h-3.55v2.93zm8.09 4.37v-8.18h.91v8.18h-.91zm8.32-.91c0 .34.05.6.1.9h-.9a3.22 3.22 0 0 1-.12-.7c-.85.55-1.81.89-2.93.89-.97 0-2.4-.27-2.4-1.8 0-2.03 3.05-2.1 5.34-2.38v-.22c0-.8-.95-1.1-1.89-1.1-1.56 0-2.11.65-2.4.99l-.7-.48c.35-.41.99-1.25 3.03-1.25 1.34 0 2.87.39 2.87 1.9v3.25zm-.9-2.34c-2.68.25-4.48.5-4.48 1.64 0 .92 1.03 1.04 1.48 1.04 1.27 0 2.4-.6 3-.92v-1.76zm6.42-1.86h-2.34v3.55c0 .65.28.96 1.2.96.45 0 .8-.08 1.3-.18v.79c-.65.1-1.11.17-1.48.17-1.93 0-1.93-1.17-1.93-1.65V67.9h-1.25v-.78h1.25v-1.95h.91v1.95h2.34v.78zm2.33.12h-1.48v-.77h1.48v-.45c0-.97.3-2.17 2.1-2.17.93 0 1.28.1 1.52.16v.8c-.4-.1-.8-.19-1.26-.19-1.26 0-1.45.6-1.45 1.47v.38h2.42v.77h-2.42v4.99h-.91v-4.99zm3.79 1.94c0-1.68 1.33-3.01 3.4-3.01 2.06 0 3.38 1.33 3.38 3 0 2.09-1.38 3.24-3.38 3.24s-3.4-1.15-3.4-3.23zm5.87.11c0-1.07-.7-2.35-2.47-2.35-1.78 0-2.49 1.28-2.49 2.35 0 1.4.94 2.34 2.49 2.34 1.54 0 2.47-.93 2.47-2.34zm2.11-2.95h.91v1.23c.53-.6 1.27-1.4 2.46-1.4.2 0 .37 0 .53.04v.91c-.1-.01-.33-.08-.73-.08-1.29 0-2.22 1.5-2.26 1.67V73h-.9v-5.89zm4.95 0h.88v.83c.67-.58 1.37-1 2.34-1 1.28 0 1.63.61 1.86 1.04.93-.78 1.53-1.04 2.4-1.04.54 0 2.16.1 2.16 1.8v4.26h-.91v-3.92c0-.36 0-1.37-1.3-1.37-1.02 0-1.77.68-2.16 1.04V73h-.9v-3.92c0-.36 0-1.37-1.28-1.37-1.04 0-1.8.68-2.18 1.04V73h-.91v-5.89z"/></svg>